<svg xmlns="http://www.w3.org/2000/svg" xmlns:xlink="http://www.w3.org/1999/xlink" width="1440" height="650" viewBox="0 0 1440 650">
    <defs>
        <linearGradient id="b" x1="119.046%" x2="-17.21%" y1="3.102%" y2="115.887%">
            <stop offset="0%" stop-color="#759BFF"/>
            <stop offset="100%" stop-color="#843CF6"/>
        </linearGradient>
        <path id="a" d="M0 0h1440v650H0z"/>
    </defs>
    <g fill="none" fill-rule="evenodd">
        <mask id="c" fill="#fff">
            <use xlink:href="#a"/>
        </mask>
        <use fill="url(#b)" fill-rule="nonzero" xlink:href="#a"/>
        <g fill-rule="nonzero" mask="url(#c)">
            <path fill="#CCF" d="M967.23 404c-76.32-.053-138.177-62.001-138.23-138.438 0-4.588 0-8.823.705-13.764.872-8.938 8.828-15.476 17.752-14.603 8.925.874 15.453 8.841 14.58 17.779 0 3.44-.528 6.97-.528 10.588 0 58.472 47.328 105.88 105.713 105.888 58.384.01 105.72-47.398 105.73-105.87.01-58.472-47.328-105.88-105.712-105.889-12.89 0-25.673 2.356-37.716 6.962-8.722 2.232-17.603-3.027-19.832-11.762-1.912-7.464 1.657-15.255 8.555-18.679 71.282-27.37 151.225 8.312 178.555 79.7 27.329 71.39-8.3 151.453-79.582 178.823a138.175 138.175 0 0 1-49.813 9.176l-.176.089z"/>
            <path fill="#00F" d="M959.3 265H698.7c-9.755.017-17.673-7.875-17.7-17.633-.01-2.907.707-5.78 2.075-8.352L813.462-5.633c4.582-8.618 15.281-11.88 23.889-7.283a17.623 17.623 0 0 1 7.274 7.283l130.3 244.649c4.581 8.618 1.324 19.32-7.283 23.908A17.637 17.637 0 0 1 959.3 265zm-231.203-35.354h201.806L829 40.238 728.097 229.646z" opacity=".24"/>
        </g>
        <g fill-rule="nonzero" mask="url(#c)" opacity=".134">
            <path fill="#CCF" d="M1428.565 362.826c-36.494 119.072-162.672 186.042-281.975 149.658-7.16-2.189-13.768-4.21-21.142-7.667-13.532-5.624-19.938-21.158-14.318-34.668 5.621-13.51 21.168-19.895 34.699-14.27 5.37 1.64 10.625 4.15 16.27 5.875 91.243 27.896 187.8-23.34 215.669-114.443s-23.526-187.587-114.765-215.498c-91.24-27.91-187.8 23.34-215.67 114.443a172.296 172.296 0 0 0-7.13 62.176c-.678 14.676-13.12 26.025-27.815 25.335-12.56-.577-23.015-9.863-25.066-22.26-8.703-124.292 85.116-232.018 209.555-240.605 124.439-8.588 232.377 85.205 241.08 209.497a225.47 225.47 0 0 1-9.446 82.109l.054.318z"/>
            <path fill="#00F" d="M1207.846 308.357l-124.327 406.655c-4.626 15.23-20.696 23.828-35.905 19.224a28.754 28.754 0 0 1-12.019-7.215L716.783 407.068c-11.236-11.252-11.21-29.501.054-40.745a28.728 28.728 0 0 1 14.813-7.883l443.182-86.838c15.607-3.046 30.723 7.134 33.76 22.748.907 4.661.654 9.48-.746 14.007zm-165.362 343.948l96.277-314.91-343.125 67.269 246.848 247.64z"/>
        </g>
        <g fill-rule="nonzero" mask="url(#c)">
            <path fill="#CCF" d="M746.287 521.64c22.822-30.243 65.738-36.353 95.904-13.654 1.81 1.364 3.48 2.623 5.22 4.371 3.264 3.002 3.467 8.1.456 11.379-3.011 3.278-8.104 3.498-11.369.496-1.357-1.023-2.592-2.282-4.019-3.357-23.064-17.38-55.904-12.709-73.35 10.436-17.446 23.144-12.888 56.003 10.174 73.387 23.062 17.384 55.904 12.709 73.35-10.436a52.652 52.652 0 0 0 8.522-17.022c1.725-4.121 6.453-6.08 10.564-4.366a8.054 8.054 0 0 1 4.813 8.943c-10.5 36.397-48.458 57.485-84.783 47.1-36.324-10.385-57.261-48.309-46.762-84.705a68.901 68.901 0 0 1 11.262-22.476l.018-.097z" opacity=".223"/>
            <path fill="#6565E5" d="M1302.044 465.682l77.641 103.034c2.913 3.851 2.161 9.326-1.677 12.235a8.707 8.707 0 0 1-3.91 1.661l-135.286 21.12c-4.762.749-9.235-2.513-9.988-7.281a8.711 8.711 0 0 1 .704-5.04l57.618-124.188a8.715 8.715 0 0 1 11.594-4.222 8.752 8.752 0 0 1 3.304 2.681zm54.947 101.913l-60.125-79.788-44.6 96.156 104.725-16.368z"/>
            <path fill="#5050FF" d="M1344.147 151.983l-11.244 128.52c-.413 4.812-4.635 8.378-9.434 7.971a8.707 8.707 0 0 1-4.018-1.382l-114.668-74.828c-4.04-2.63-5.182-8.047-2.55-12.095a8.711 8.711 0 0 1 3.894-3.274l125.917-53.736a8.715 8.715 0 0 1 11.442 4.62 8.752 8.752 0 0 1 .66 4.204zm-27.36 112.502l8.708-99.525-97.487 41.614 88.78 57.911z"/>
        </g>
    </g>
</svg>
